<svg xmlns="http://www.w3.org/2000/svg" xmlns:xlink="http://www.w3.org/1999/xlink" width="500" zoomAndPan="magnify" viewBox="0 0 375 374.999991" height="500" preserveAspectRatio="xMidYMid meet" version="1.0"><defs><clipPath id="id1"><path d="M 4 50.578125 L 371.652344 50.578125 L 371.652344 114 L 4 114 Z M 4 50.578125 " clip-rule="nonzero"/></clipPath><clipPath id="id2"><path d="M 3.402344 154 L 371 154 L 371 218 L 3.402344 218 Z M 3.402344 154 " clip-rule="nonzero"/></clipPath><clipPath id="id3"><path d="M 3.402344 261 L 371 261 L 371 324.328125 L 3.402344 324.328125 Z M 3.402344 261 " clip-rule="nonzero"/></clipPath></defs><g clip-path="url(#id1)"><path fill="#264de4" d="M 340.253906 113.246094 L 35.734375 113.246094 C 18.40625 113.246094 4.382812 99.230469 4.382812 81.910156 C 4.382812 64.589844 18.40625 50.578125 35.734375 50.578125 L 340.253906 50.578125 C 357.582031 50.578125 371.605469 64.589844 371.605469 81.910156 C 371.605469 99.230469 357.582031 113.246094 340.253906 113.246094 Z M 340.253906 113.246094 " fill-opacity="1" fill-rule="nonzero"/></g><g clip-path="url(#id2)"><path fill="#264de4" d="M 339.320312 217.167969 L 34.800781 217.167969 C 17.46875 217.167969 3.449219 203.15625 3.449219 185.835938 C 3.449219 168.515625 17.46875 154.5 34.800781 154.5 L 339.320312 154.5 C 356.648438 154.5 370.667969 168.515625 370.667969 185.835938 C 370.667969 203.15625 356.648438 217.167969 339.320312 217.167969 Z M 339.320312 217.167969 " fill-opacity="1" fill-rule="nonzero"/></g><g clip-path="url(#id3)"><path fill="#264de4" d="M 339.320312 324.328125 L 34.800781 324.328125 C 17.46875 324.328125 3.449219 310.3125 3.449219 292.992188 C 3.449219 275.671875 17.46875 261.65625 34.800781 261.65625 L 339.320312 261.65625 C 356.648438 261.65625 370.667969 275.671875 370.667969 292.992188 C 370.667969 310.3125 356.648438 324.328125 339.320312 324.328125 Z M 339.320312 324.328125 " fill-opacity="1" fill-rule="nonzero"/></g></svg>