<svg xmlns="http://www.w3.org/2000/svg" xmlns:xlink="http://www.w3.org/1999/xlink" width="500" zoomAndPan="magnify" viewBox="0 0 375 374.999991" height="500" preserveAspectRatio="xMidYMid meet" version="1.0"><defs><clipPath id="id1"><path d="M 3.429688 3.429688 L 371.679688 3.429688 L 371.679688 371.679688 L 3.429688 371.679688 Z M 3.429688 3.429688 " clip-rule="nonzero"/></clipPath></defs><g clip-path="url(#id1)"><path fill="#264de4" d="M 371.742188 187.582031 C 371.742188 289.289062 289.289062 371.742188 187.585938 371.742188 C 85.878906 371.742188 3.429688 289.289062 3.429688 187.582031 C 3.429688 85.871094 85.878906 3.421875 187.585938 3.421875 C 289.289062 3.421875 371.742188 85.871094 371.742188 187.582031 " fill-opacity="1" fill-rule="nonzero"/></g><path fill="#ffffff" d="M 198.199219 198.199219 L 198.199219 267.265625 L 176.96875 267.265625 L 176.96875 198.199219 L 107.898438 198.199219 L 107.898438 176.960938 L 176.96875 176.960938 L 176.96875 107.898438 L 198.199219 107.898438 L 198.199219 176.960938 L 267.269531 176.960938 L 267.269531 198.199219 L 198.199219 198.199219 " fill-opacity="1" fill-rule="nonzero"/></svg>